<svg xmlns="http://www.w3.org/2000/svg" width="180" height="180" viewBox="0 0 180 180">
  <path d="M 0.00 76.50 L 0.50 72.00 L 1.50 71.00 L 1.50 68.00 L 2.50 67.00 L 2.50 64.00 L 6.50 56.00 L 12.00 50.50 L 13.00 50.50 L 21.50 42.00 L 22.50 39.00 L 37.00 25.50 L 38.00 25.50 L 42.00 22.50 L 49.00 22.50 L 55.00 16.50 L 58.00 16.50 L 59.00 15.50 L 61.00 15.50 L 62.00 16.50 L 68.00 11.50 L 70.00 11.50 L 70.50 13.00 L 72.00 13.50 L 80.00 9.50 L 82.00 9.50 L 86.00 7.50 L 90.00 7.50 L 92.00 9.50 L 95.00 9.50 L 96.50 11.00 L 96.50 14.00 L 95.00 16.50 L 93.00 17.50 L 78.00 17.50 L 77.00 18.50 L 73.00 18.50 L 70.00 20.50 L 67.00 20.50 L 53.00 27.50 L 51.00 29.50 L 49.00 29.50 L 47.00 31.50 L 43.00 33.50 L 38.00 38.50 L 37.00 38.50 L 24.50 51.00 L 24.50 52.00 L 22.50 54.00 L 19.50 60.00 L 18.50 65.00 L 17.50 66.00 L 16.50 80.00 L 15.50 81.00 L 15.50 88.00 L 13.50 90.00 L 13.50 92.00 L 12.50 93.00 L 13.50 94.00 L 13.50 101.00 L 14.50 102.00 L 14.50 105.00 L 13.00 105.50 L 12.50 107.00 L 15.00 107.50 L 16.50 109.00 L 17.50 113.00 L 21.50 120.00 L 35.00 132.50 L 36.00 132.50 L 41.00 137.50 L 42.00 137.50 L 47.00 142.50 L 48.00 142.50 L 49.00 144.50 L 50.00 144.50 L 52.00 146.50 L 56.00 144.50 L 57.50 146.00 L 55.50 148.00 L 60.00 150.50 L 62.00 150.50 L 63.00 151.50 L 67.00 151.50 L 68.00 152.50 L 76.00 152.50 L 77.00 153.50 L 84.00 153.50 L 85.00 154.50 L 89.00 154.50 L 90.00 155.50 L 95.00 155.50 L 96.00 154.50 L 103.00 154.50 L 105.00 153.50 L 106.50 152.00 L 108.00 147.50 L 110.00 149.50 L 112.00 149.50 L 116.00 146.50 L 118.00 146.50 L 120.00 148.50 L 122.00 147.50 L 127.00 148.50 L 129.00 146.50 L 134.00 144.50 L 139.00 140.50 L 142.00 139.50 L 160.00 126.50 L 162.00 125.50 L 165.00 125.50 L 165.50 124.00 L 170.00 119.50 L 172.00 118.50 L 172.50 119.00 L 171.50 123.00 L 168.50 129.00 L 166.50 131.00 L 162.50 138.00 L 155.50 145.00 L 154.50 149.00 L 153.00 150.50 L 148.00 150.50 L 147.00 152.50 L 143.00 152.50 L 141.50 154.00 L 143.50 156.00 L 143.50 158.00 L 143.00 158.50 L 140.00 156.50 L 138.00 158.50 L 137.00 158.50 L 131.50 164.00 L 131.00 167.50 L 126.50 168.00 L 126.00 171.50 L 125.00 171.50 L 122.00 168.50 L 118.00 168.50 L 117.00 169.50 L 115.00 169.50 L 114.00 171.50 L 110.00 171.50 L 107.00 169.50 L 97.00 169.50 L 96.00 168.50 L 89.00 168.50 L 88.00 167.50 L 85.00 167.50 L 84.00 168.50 L 74.00 168.50 L 73.00 169.50 L 71.00 167.50 L 61.00 162.50 L 59.00 162.50 L 54.00 159.50 L 48.00 159.50 L 44.00 157.50 L 42.00 155.50 L 33.00 155.50 L 27.00 152.50 L 24.50 150.00 L 22.50 146.00 L 21.50 141.00 L 17.50 138.00 L 16.50 133.00 L 4.50 110.00 L 4.50 104.00 L 6.50 102.00 L 6.50 99.00 L 5.50 98.00 L 4.50 93.00 L 0.00 84.50 Z M 179.00 76.50 L 178.50 79.00 L 177.50 80.00 L 177.50 84.00 L 176.50 85.00 L 176.00 90.50 L 174.50 89.00 L 174.50 83.00 L 175.50 82.00 L 175.50 80.00 L 173.00 79.50 L 172.50 77.00 L 166.50 71.00 L 164.50 67.00 L 165.50 62.00 L 164.50 60.00 L 157.50 53.00 L 155.00 44.50 L 153.00 45.50 L 150.00 45.50 L 145.00 41.50 L 142.00 40.50 L 134.00 34.50 L 129.00 32.50 L 122.00 27.50 L 120.00 27.50 L 118.00 25.50 L 113.00 25.50 L 112.00 24.50 L 109.00 24.50 L 105.00 22.50 L 101.50 18.00 L 104.00 14.50 L 111.00 14.50 L 113.00 12.50 L 128.00 12.50 L 129.00 13.50 L 135.00 14.50 L 138.00 16.50 L 140.00 16.50 L 144.00 18.50 L 146.00 20.50 L 149.00 21.50 L 157.50 30.00 L 157.50 31.00 L 160.50 34.00 L 160.50 35.00 L 162.50 37.00 L 164.50 41.00 L 167.50 44.00 L 171.50 51.00 L 174.50 54.00 L 174.50 60.00 L 175.50 61.00 L 175.50 65.00 L 176.50 66.00 L 176.50 74.00 L 177.00 74.50 L 179.00 73.50 Z M 98.00 127.50 L 90.00 127.50 L 89.00 126.50 L 85.00 126.50 L 84.00 125.50 L 82.00 125.50 L 76.00 122.50 L 66.50 113.00 L 66.50 112.00 L 64.50 110.00 L 63.50 107.00 L 61.50 105.00 L 61.50 103.00 L 59.50 99.00 L 59.50 96.00 L 58.50 95.00 L 58.50 80.00 L 59.50 79.00 L 60.50 73.00 L 63.50 67.00 L 65.50 65.00 L 67.50 61.00 L 75.00 53.50 L 84.00 48.50 L 88.00 48.50 L 89.00 47.50 L 100.00 47.50 L 101.00 48.50 L 105.00 48.50 L 113.00 52.50 L 123.50 64.00 L 127.50 72.00 L 128.50 78.00 L 129.50 79.00 L 129.50 96.00 L 128.50 97.00 L 127.50 103.00 L 124.50 109.00 L 122.50 111.00 L 122.50 112.00 L 112.00 122.50 L 106.00 125.50 L 104.00 125.50 L 103.00 126.50 L 99.00 126.50 L 98.00 127.50 Z M 100.50 121.00 L 105.00 119.50 L 108.00 116.50 L 109.00 116.50 L 111.50 114.00 L 115.50 106.00 L 115.50 104.00 L 116.50 103.00 L 116.50 99.00 L 117.50 98.00 L 117.50 77.00 L 116.50 76.00 L 116.50 72.00 L 115.50 71.00 L 115.50 69.00 L 114.50 68.00 L 113.50 64.00 L 107.00 56.50 L 101.00 53.50 L 98.00 53.50 L 97.00 52.50 L 92.00 52.50 L 91.00 53.50 L 85.00 54.50 L 83.00 56.50 L 82.00 56.50 L 76.50 62.00 L 73.50 68.00 L 73.50 70.00 L 71.50 74.00 L 71.50 78.00 L 70.50 79.00 L 70.50 96.00 L 71.50 97.00 L 72.50 105.00 L 75.50 111.00 L 81.00 117.50 L 89.00 121.50 L 100.50 121.00 Z" fill="rgb(127,76,237)" fill-rule="evenodd"/>
</svg>